<?xml version="1.0" encoding="UTF-8"?>
<svg version="1.1" xmlns="http://www.w3.org/2000/svg" width="750" height="400">
<path d="M0 0 C17.16563954 15.91624173 29.73877802 39.18905817 31.875 62.6875 C31.94497115 66.35598735 31.93470489 70.01896641 31.875 73.6875 C33.01775391 73.18089844 33.01775391 73.18089844 34.18359375 72.6640625 C40.35817231 69.99689124 46.20168423 67.63626215 52.875 66.6875 C53.88820313 66.54183594 54.90140625 66.39617187 55.9453125 66.24609375 C69.89641099 64.73657854 84.2923473 67.39617365 96.875 73.6875 C96.98980713 73.09026123 97.10461426 72.49302246 97.22290039 71.87768555 C101.91573825 47.89996638 108.61799338 21.41233529 127.875 4.6875 C132.63563472 1.5699948 137.20721698 1.22679441 142.76171875 2.109375 C146.79263015 3.21210122 149.73425866 5.18379551 152.25 8.5 C154.28501409 15.6225493 152.145435 20.00816129 148.7890625 26.37890625 C146.74931014 29.90476391 144.56024401 33.29274751 142.3125 36.6875 C138.31548594 42.74732846 135.24412585 48.7938083 132.875 55.6875 C132.55660156 56.58210938 132.23820312 57.47671875 131.91015625 58.3984375 C126.97572353 74.63431289 128.97445745 92.28279428 136.5 107.3125 C147.01142699 125.18192588 162.90196957 136.67000673 182.5625 142.5625 C200.30522682 146.76953832 218.70734225 144.02948875 234.38671875 134.6796875 C251.50044696 123.378551 263.68186865 107.95154369 268.48022461 87.83178711 C272.00493354 68.686754 265.79373846 50.2234809 255.046875 34.4609375 C253.58919324 32.35372745 252.1169285 30.26213489 250.60717773 28.19189453 C246.54466885 22.55380365 244.13312748 17.63317651 245.265625 10.58203125 C246.50224979 6.7373965 249.38090345 4.57335265 252.74609375 2.578125 C257.25647877 0.69121163 262.35768512 1.00553652 267.0234375 2.26953125 C280.45683422 8.0835903 289.35472699 26.05647316 294.59375 38.96484375 C298.55405536 50.47146267 301.06453155 62.49247078 300.9375 74.6875 C300.92847656 75.821875 300.91945313 76.95625 300.91015625 78.125 C300.89275391 79.3934375 300.89275391 79.3934375 300.875 80.6875 C301.44605469 80.67589844 302.01710938 80.66429688 302.60546875 80.65234375 C321.38666407 80.44333204 321.38666407 80.44333204 325.875 82.6875 C325.875 91.2675 325.875 99.8475 325.875 108.6875 C311.025 109.1825 311.025 109.1825 295.875 109.6875 C294.864375 112.08 293.85375 114.4725 292.8125 116.9375 C287.23401333 129.74784045 280.58398432 139.73791403 270.875 149.6875 C269.88886719 150.78384766 269.88886719 150.78384766 268.8828125 151.90234375 C254.6432195 167.33366234 230.61042053 177.66611785 209.80151367 178.86450195 C180.79397597 179.4100097 180.79397597 179.4100097 166.875 174.6875 C166.22402344 174.46787598 165.57304687 174.24825195 164.90234375 174.02197266 C139.09566388 165.10200234 118.78787699 145.26003495 106.88964844 120.89477539 C104.46504716 115.73085373 102.54254576 110.64959477 101.0625 105.125 C99.65113048 100.65666417 98.22067193 98.64449323 94.25 96.125 C78.53223212 88.25454185 59.51273491 87.22020309 42.875 92.6875 C41.8953125 92.98527344 40.915625 93.28304687 39.90625 93.58984375 C33.87354899 96.05098688 31.25484255 99.15974459 28.625 104.93237305 C27.2911889 108.10701279 26.02193868 111.30457687 24.76611328 114.51074219 C13.96212923 140.90206324 -10.70029498 161.32617339 -36.25 172.5 C-61.76792132 182.6185883 -89.07794777 180.19775667 -113.96240234 169.66992188 C-138.3148587 158.60712165 -155.66536297 137.80870376 -166.125 113.6875 C-166.62 111.2125 -166.62 111.2125 -167.125 108.6875 C-177.685 108.6875 -188.245 108.6875 -199.125 108.6875 C-199.125 99.7775 -199.125 90.8675 -199.125 81.6875 C-190.215 81.6875 -181.305 81.6875 -172.125 81.6875 C-172.2075 78.59375 -172.29 75.5 -172.375 72.3125 C-172.58214115 46.00967544 -162.04477792 22.15962315 -143.8046875 3.3671875 C-103.60883143 -36.82866857 -42.18528125 -36.3621596 0 0 Z M-123.875 29.05859375 C-136.67216536 44.01083731 -142.55479159 63.02881641 -141.32763672 82.54101562 C-139.41248817 102.82774583 -129.19846585 119.57350081 -113.8125 132.5 C-98.09948956 143.92257851 -79.35139652 149.05392127 -60.07763672 146.40625 C-40.06641812 142.99926139 -24.10574517 132.37615791 -11.87109375 116.3515625 C-1.17747164 100.03601378 2.15392455 81.1376272 -1.3125 62.0625 C-5.36132679 43.88985883 -15.73804575 27.60091889 -31.4609375 17.28125 C-62.11927055 -1.05980555 -98.85414547 2.79471599 -123.875 29.05859375 Z " fill="#1B9CB9" transform="translate(311.125,42.3125)"/>
<path d="M0 0 C3.5456633 3.02678575 4.30435521 4.63863125 5.0625 9.1875 C4.75896368 17.59724159 -1.49857999 25.38903596 -6 32.1875 C-9.99701406 38.24732846 -13.06837415 44.2938083 -15.4375 51.1875 C-15.75589844 52.08210938 -16.07429688 52.97671875 -16.40234375 53.8984375 C-21.33677647 70.13431289 -19.33804255 87.78279428 -11.8125 102.8125 C-1.30107301 120.68192588 14.58946957 132.17000673 34.25 138.0625 C51.99272682 142.26953832 70.39484225 139.52948875 86.07421875 130.1796875 C103.18794696 118.878551 115.36936865 103.45154369 120.16772461 83.33178711 C123.69243354 64.186754 117.48123846 45.7234809 106.734375 29.9609375 C105.27669324 27.85372745 103.8044285 25.76213489 102.29467773 23.69189453 C98.23216885 18.05380365 95.82062748 13.13317651 96.953125 6.08203125 C98.18974979 2.2373965 101.06840345 0.07335265 104.43359375 -1.921875 C108.94397877 -3.80878837 114.04518512 -3.49446348 118.7109375 -2.23046875 C132.14433422 3.5835903 141.04222699 21.55647316 146.28125 34.46484375 C150.24155536 45.97146267 152.75203155 57.99247078 152.625 70.1875 C152.61597656 71.321875 152.60695313 72.45625 152.59765625 73.625 C152.58025391 74.8934375 152.58025391 74.8934375 152.5625 76.1875 C153.13355469 76.17589844 153.70460938 76.16429688 154.29296875 76.15234375 C173.07416407 75.94333204 173.07416407 75.94333204 177.5625 78.1875 C177.5625 86.7675 177.5625 95.3475 177.5625 104.1875 C167.6625 104.5175 157.7625 104.8475 147.5625 105.1875 C146.0465625 108.77625 146.0465625 108.77625 144.5 112.4375 C138.92151333 125.24784045 132.27148432 135.23791403 122.5625 145.1875 C121.90507813 145.91839844 121.24765625 146.64929688 120.5703125 147.40234375 C106.3307195 162.83366234 82.29792053 173.16611785 61.48901367 174.36450195 C32.48147597 174.9100097 32.48147597 174.9100097 18.5625 170.1875 C17.91152344 169.96787598 17.26054687 169.74825195 16.58984375 169.52197266 C-9.21683612 160.60200234 -29.52462301 140.76003495 -41.42285156 116.39477539 C-43.84745284 111.23085373 -45.76995424 106.14959477 -47.25 100.625 C-48.66136952 96.15666417 -50.09182807 94.14449323 -54.0625 91.625 C-63.17109138 87.09065013 -72.42212129 85.57260557 -82.4375 84.1875 C-82.4375 76.9275 -82.4375 69.6675 -82.4375 62.1875 C-76.02059522 62.1875 -71.23143738 62.39522412 -65.25 64 C-64.57775391 64.16564453 -63.90550781 64.33128906 -63.21289062 64.50195312 C-58.98345067 65.59328865 -55.271898 67.10631042 -51.4375 69.1875 C-51.32269287 68.59026123 -51.20788574 67.99302246 -51.08959961 67.37768555 C-46.39676175 43.39996638 -39.69450662 16.91233529 -20.4375 0.1875 C-13.90619915 -4.08952723 -6.73742745 -3.55246175 0 0 Z " fill="#D6DE23" transform="translate(459.4375,46.8125)"/>
<path d="M0 0 C6.93 0 13.86 0 21 0 C21 48.18 21 96.36 21 146 C14.07 146 7.14 146 0 146 C-0.33 142.7 -0.66 139.4 -1 136 C-1.87140625 136.53109375 -2.7428125 137.0621875 -3.640625 137.609375 C-18.95459574 146.77998829 -34.08384289 151.19610252 -51.9375 146.875 C-67.74509319 141.64671219 -78.85665088 133.43043498 -86.765625 118.71484375 C-94.23669894 103.21055196 -95.3720784 87.00180203 -90.3203125 70.46875 C-84.29492421 54.63873579 -73.81328577 45.27820399 -59 38 C-56.03630061 36.77114903 -53.11823182 35.75011143 -50 35 C-49.26652344 34.82082031 -48.53304687 34.64164062 -47.77734375 34.45703125 C-29.55594838 31.45857378 -16.48838196 36.14375694 -1 46 C-0.67 30.82 -0.34 15.64 0 0 Z M-64 67 C-70.48115974 75.66386436 -73.02940118 84.23213688 -72 95 C-69.90601295 106.45534093 -63.40232096 115.28622639 -54 122 C-44.44046284 127.27527888 -35.25026205 127.94840486 -24.83203125 125.01953125 C-20.77030797 123.55731087 -17.45145045 121.56231801 -14 119 C-13.13375 118.4225 -12.2675 117.845 -11.375 117.25 C-3.58236314 109.86750193 0.00849086 100.73951654 0.4375 90.125 C0.07983363 78.9658093 -3.94438601 69.75214908 -12 62 C-29.24361629 49.17372986 -49.65752532 51.19854945 -64 67 Z " fill="#1B9CB9" transform="translate(482,252)"/>
<path d="M0 0 C11.94790826 9.93192993 18.01646938 22.75031567 21.0234375 37.78515625 C21.1059375 38.85765625 21.1884375 39.93015625 21.2734375 41.03515625 C21.35078125 41.98841797 21.35078125 41.98841797 21.4296875 42.9609375 C22.10224125 58.28955842 16.18679185 73.16217224 6.0234375 84.47265625 C-3.76227087 94.80014559 -16.74823085 101.67178444 -31.09765625 102.2734375 C-49.40098814 102.67708099 -65.04886342 98.90288763 -78.91796875 86.04296875 C-91.58253428 71.98338628 -94.70314091 55.83690706 -93.91748047 37.57763672 C-93.1158762 26.90256404 -88.65060403 17.80956809 -82.7265625 9.03515625 C-82.29988281 8.3803125 -81.87320313 7.72546875 -81.43359375 7.05078125 C-62.5633921 -18.26432005 -23.24566895 -16.75153508 0 0 Z M-66.22265625 23.8828125 C-72.07538415 32.25905425 -73.58936068 40.98538024 -72.7265625 51.03515625 C-70.32908034 61.37857929 -64.51713637 70.03834776 -55.7265625 76.03515625 C-45.84763766 81.2760096 -36.48527935 82.72942063 -25.6015625 79.47265625 C-15.85540925 75.87465926 -8.57727284 69.32885465 -3.73046875 60.1484375 C0.67988429 50.42033821 0.23202529 40.82439309 -3.41015625 30.92578125 C-7.63386017 21.65117916 -14.92436064 15.00781367 -24.23828125 10.9375 C-40.2605284 5.52967718 -55.62153226 11.06799672 -66.22265625 23.8828125 Z " fill="#D7DF23" transform="translate(728.7265625,296.96484375)"/>
<path d="M0 0 C11.85540765 9.46130591 16.9998007 23.04587852 19.88671875 37.48046875 C19.88671875 41.11046875 19.88671875 44.74046875 19.88671875 48.48046875 C-7.83328125 48.48046875 -35.55328125 48.48046875 -64.11328125 48.48046875 C-59.77095344 61.50745218 -56.26971249 70.17096806 -44.140625 76.51171875 C-35.54938012 80.20100085 -27.87227894 78.57749546 -19.20703125 75.7734375 C-15.49983168 74.2240902 -12.74044654 72.26224885 -9.796875 69.5546875 C-8.11328125 68.48046875 -8.11328125 68.48046875 -6.22387695 68.79785156 C-2.85270359 69.88816975 0.09790676 71.75488731 3.13671875 73.54296875 C3.78640625 73.92001953 4.43609375 74.29707031 5.10546875 74.68554688 C6.70176966 75.6128099 8.29459404 76.54605331 9.88671875 77.48046875 C9.88671875 81.48046875 9.88671875 81.48046875 7.90234375 83.62890625 C-7.48642843 96.01817199 -23.42899794 101.42731646 -43.11328125 99.48046875 C-55.57020057 97.0996241 -67.40452192 89.52436321 -75.11328125 79.48046875 C-84.70284982 63.90363068 -88.1409778 46.59089959 -84.42578125 28.44140625 C-80.50007842 14.73416053 -71.6391172 2.26493914 -59.4453125 -5.2734375 C-39.40159037 -15.98356708 -18.13287581 -13.03824157 0 0 Z M-56.11328125 19.48046875 C-60.10460875 24.59618485 -60.10460875 24.59618485 -62.11328125 30.48046875 C-42.64328125 30.48046875 -23.17328125 30.48046875 -3.11328125 30.48046875 C-8.20170897 20.3036133 -12.39482198 14.34430616 -22.859375 9.55078125 C-35.68971258 5.33047813 -47.35536216 9.71272671 -56.11328125 19.48046875 Z " fill="#1B9CB9" transform="translate(234.11328125,299.51953125)"/>
<path d="M0 0 C6.93 0 13.86 0 21 0 C21.33 3.63 21.66 7.26 22 11 C24.165625 9.63875 24.165625 9.63875 26.375 8.25 C39.89533264 0.14929078 51.99820798 -1.67087971 67.3125 1.91015625 C81.19875739 6.01425139 91.46731539 13.72803057 99.4375 25.8125 C105.49802821 37.23556672 106.5795044 48.55882216 106.390625 61.2421875 C106.38314013 62.74674721 106.37745786 64.25131684 106.37347412 65.75588989 C106.35839393 69.6653868 106.31927111 73.57426403 106.2746582 77.48352051 C106.23331874 81.49283471 106.21538163 85.50225165 106.1953125 89.51171875 C106.15275377 97.34145752 106.08255551 105.17056207 106 113 C99.07 113 92.14 113 85 113 C84.98541748 111.14391113 84.97083496 109.28782227 84.95581055 107.37548828 C84.9039401 101.20869079 84.83859669 95.0421481 84.76428509 88.87558174 C84.71976133 85.14070971 84.68046704 81.40594225 84.65356445 77.67089844 C84.62734998 74.05912515 84.58682354 70.44775823 84.53681374 66.83623886 C84.52026652 65.46575899 84.50867727 64.09520903 84.50238609 62.72464371 C84.44220393 50.80711042 83.1395099 40.21420709 75 31 C67.40246333 24.64148813 60.15592593 22.4939697 50.3125 22.6953125 C41.01229373 23.550756 34.14863987 28.12207361 28 35 C21.56474488 44.24270353 21.68310988 55.38886777 21.5859375 66.22265625 C21.56719032 67.5774397 21.54761437 68.93221191 21.5272522 70.28697205 C21.47629924 73.8230013 21.43647859 77.35906827 21.39910889 80.89526367 C21.35883586 84.51555422 21.30785083 88.13569296 21.2578125 91.75585938 C21.16149052 98.83713364 21.07794058 105.91849605 21 113 C14.07 113 7.14 113 0 113 C0 75.71 0 38.42 0 0 Z " fill="#1B9CB9" transform="translate(0,286)"/>
<path d="M0 0 C4.93087629 2.28933542 7.43866497 5.24323495 10 10 C12.61501646 17.74004985 12.32792294 25.62971677 12.3359375 33.70703125 C12.34237721 35.23866394 12.34910641 36.77029544 12.35610962 38.30192566 C12.36804003 41.50347746 12.37179483 44.7049217 12.37060547 47.90649414 C12.37040252 51.98143502 12.39769842 56.05567665 12.43214989 60.13045216 C12.45453664 63.29203881 12.45843944 66.45346028 12.45738602 69.61511803 C12.45972454 71.1160288 12.46844784 72.61694537 12.48405075 74.11777687 C12.66931399 93.77752013 12.66931399 93.77752013 6.19125366 101.02302551 C1.78120002 105.05140965 -1.85687033 106.32244743 -7.9453125 106.2109375 C-12.62735401 105.73027164 -15.40020358 103.58584767 -18.6875 100.375 C-25.03052477 91.97292571 -24.44469666 81.94909794 -24.3984375 71.90625 C-24.40046267 70.34883488 -24.40337778 68.79142069 -24.40713501 67.23400879 C-24.41153755 63.98289895 -24.40519461 60.73203777 -24.39111328 57.48095703 C-24.37402245 53.3353114 -24.38387483 49.19024864 -24.40183067 45.04462433 C-24.41272485 41.83249604 -24.4091965 38.62050358 -24.4014473 35.40837097 C-24.39946082 33.88071115 -24.40184935 32.35303858 -24.40888596 30.82539368 C-24.44244982 21.49299703 -24.35682764 13.14713571 -19.125 5.125 C-13.38175217 -0.61824783 -7.80135243 -0.94209005 0 0 Z " fill="#D7DF23" transform="translate(516,0)"/>
<path d="M0 0 C6.6 0 13.2 0 20 0 C20 3.96 20 7.92 20 12 C21.01578125 11.45730469 22.0315625 10.91460937 23.078125 10.35546875 C35.27112141 3.96589828 46.15055419 0.71211689 60 0 C56.78470825 20.21529175 56.78470825 20.21529175 55 22 C53.35801842 22.27416026 51.71107698 22.51878303 50.0625 22.75 C40.61721613 24.45064049 34.19331707 28.10403228 27.7890625 35.23046875 C22.03664032 44.13541924 21.39696581 52.56651293 21.390625 62.9765625 C21.3756133 64.39718482 21.35887997 65.81778988 21.34051514 67.2383728 C21.29716368 70.9437956 21.27691504 74.64898315 21.26177979 78.35461426 C21.24209119 82.14930958 21.20013524 85.94375506 21.16015625 89.73828125 C21.08520373 97.15881807 21.03676509 104.57915771 21 112 C14.07 112 7.14 112 0 112 C0 75.04 0 38.08 0 0 Z " fill="#1B9CB9" transform="translate(298,286)"/>
<path d="M0 0 C6.93 0 13.86 0 21 0 C21 33.66 21 67.32 21 102 C14.07 102 7.14 102 0 102 C0 68.34 0 34.68 0 0 Z " fill="#D7DF23" transform="translate(565,296)"/>
<path d="M0 0 C3.87726314 2.01043274 6.89824862 4.12835271 9 8 C10.28862781 13.25363644 10.04209133 16.98759401 8 22 C4.8506589 25.71460745 2.66970357 27.7197041 -2.26953125 28.23828125 C-8.03025737 28.40641304 -11.57920613 28.09732115 -16 24 C-19.01915819 19.57190133 -19.90587108 15.27237328 -19 10 C-17.6252084 6.10087355 -15.70289518 3.50673839 -12.3125 1.0625 C-8.06682872 -0.29931909 -4.41446158 -0.71992115 0 0 Z " fill="#D7DF23" transform="translate(580,251)"/>
</svg>
